<?xml version="1.0" encoding="iso-8859-1"?>
<!-- Uploaded to: SVG Repo, www.svgrepo.com, Generator: SVG Repo Mixer Tools -->
<svg fill="#000000" height="800px" width="800px" version="1.1" id="Layer_1" xmlns="http://www.w3.org/2000/svg" xmlns:xlink="http://www.w3.org/1999/xlink" 
	 viewBox="0 0 512 512" xml:space="preserve">
<g>
	<g>
		<g>
			<path d="M463.623,90.701h-37.892V77.603c0-9.864-7.997-17.86-17.86-17.86c-9.864,0-17.86,7.997-17.86,17.86v13.099H121.989
				V77.603c0-9.864-7.997-17.86-17.86-17.86c-9.864,0-17.86,7.997-17.86,17.86v13.099H48.377C21.702,90.701,0,112.402,0,139.078
				v65.089c0,9.864,7.997,17.86,17.86,17.86H27.91v212.369c0,9.864,7.997,17.86,17.86,17.86H466.23c9.864,0,17.86-7.997,17.86-17.86
				V222.028h10.049c9.864,0,17.86-7.997,17.86-17.86v-65.089C512,112.402,490.298,90.701,463.623,90.701z M448.369,416.537H63.63
				V222.028h384.739V416.537z M476.28,186.307c-19.71,0-416.292,0-440.558,0v-47.229h-0.001c0-6.977,5.677-12.656,12.656-12.656
				h37.892v19.389c0,9.864,7.997,17.86,17.86,17.86c9.864,0,17.86-7.997,17.86-17.86v-19.389h268.022v19.389
				c0,9.864,7.997,17.86,17.86,17.86c9.864,0,17.86-7.997,17.86-17.86v-19.389h37.892c6.979,0,12.656,5.678,12.656,12.656V186.307z"
				/>
			<path d="M110.034,300.992h30.012c9.864,0,17.86-7.997,17.86-17.86c0-9.864-7.997-17.86-17.86-17.86h-30.012
				c-9.864,0-17.86,7.997-17.86,17.86C92.173,292.995,100.17,300.992,110.034,300.992z"/>
			<path d="M197.34,300.992h30.012c9.864,0,17.86-7.997,17.86-17.86c0-9.864-7.997-17.86-17.86-17.86H197.34
				c-9.864,0-17.86,7.997-17.86,17.86C179.48,292.995,187.477,300.992,197.34,300.992z"/>
			<path d="M284.648,300.992h30.012c9.864,0,17.86-7.997,17.86-17.86c0-9.864-7.997-17.86-17.86-17.86h-30.012
				c-9.864,0-17.86,7.997-17.86,17.86C266.788,292.995,274.783,300.992,284.648,300.992z"/>
			<path d="M371.955,300.992h30.012c9.864,0,17.86-7.997,17.86-17.86c0-9.864-7.997-17.86-17.86-17.86h-30.012
				c-9.864,0-17.86,7.997-17.86,17.86C354.094,292.995,362.091,300.992,371.955,300.992z"/>
			<path d="M110.034,373.293h30.012c9.864,0,17.86-7.997,17.86-17.86c0-9.864-7.997-17.86-17.86-17.86h-30.012
				c-9.864,0-17.86,7.997-17.86,17.86C92.173,365.297,100.17,373.293,110.034,373.293z"/>
			<path d="M197.34,373.293h30.012c9.864,0,17.86-7.997,17.86-17.86c0-9.864-7.997-17.86-17.86-17.86H197.34
				c-9.864,0-17.86,7.997-17.86,17.86C179.48,365.297,187.477,373.293,197.34,373.293z"/>
			<path d="M284.648,373.293h30.012c9.864,0,17.86-7.997,17.86-17.86c0-9.864-7.997-17.86-17.86-17.86h-30.012
				c-9.864,0-17.86,7.997-17.86,17.86C266.788,365.297,274.783,373.293,284.648,373.293z"/>
			<path d="M371.955,373.293h30.012c9.864,0,17.86-7.997,17.86-17.86c0-9.864-7.997-17.86-17.86-17.86h-30.012
				c-9.864,0-17.86,7.997-17.86,17.86C354.094,365.297,362.091,373.293,371.955,373.293z"/>
		</g>
	</g>
</g>
</svg>