<?xml version="1.0" encoding="iso-8859-1"?>
<!-- Uploaded to: SVG Repo, www.svgrepo.com, Generator: SVG Repo Mixer Tools -->
<svg fill="#000000" height="800px" width="800px" version="1.1" id="Layer_1" xmlns="http://www.w3.org/2000/svg" xmlns:xlink="http://www.w3.org/1999/xlink" 
	 viewBox="0 0 512.073 512.073" xml:space="preserve">
<g>
	<g>
		<g>
			<path d="M243.819,219.429c-13.458,0-24.381,10.923-24.381,24.381c0,13.458,10.923,24.381,24.381,24.381
				c13.458,0,24.381-10.923,24.381-24.381C268.2,230.351,257.277,219.429,243.819,219.429z"/>
			<path d="M341.343,219.429c-13.458,0-24.381,10.923-24.381,24.381c0,13.458,10.923,24.381,24.381,24.381
				c13.458,0,24.381-10.923,24.381-24.381C365.724,230.351,354.801,219.429,341.343,219.429z"/>
			<path d="M146.295,219.429c-13.458,0-24.381,10.923-24.381,24.381c0,13.458,10.923,24.381,24.381,24.381
				c13.458,0,24.381-10.923,24.381-24.381C170.676,230.351,159.753,219.429,146.295,219.429z"/>
			<path d="M510.833,480.136l-44.226-137.135c13.782-30.94,21.022-64.573,21.022-99.192C487.628,109.147,378.482,0,243.819,0
				S0.009,109.147,0.009,243.81s109.147,243.81,243.81,243.81c41.596,0,101.547-11.415,132.758-26.93
				c0.414-0.236,0.817-0.48,1.213-0.731l98.935,49.468C496.05,519.089,517.464,500.699,510.833,480.136z M303.484,368.288
				c-12.044-6.022-26.689-1.14-32.71,10.904c-6.022,12.044-1.14,26.689,10.904,32.71l35.178,17.589h0
				c-23.935,5.614-51.867,9.366-73.036,9.366c-107.732,0-195.048-87.315-195.048-195.048S136.086,48.762,243.819,48.762
				s195.048,87.315,195.048,195.048c0,30.502-6.995,59.967-20.255,86.686c-2.827,5.696-3.316,12.27-1.365,18.322l29.358,91.032
				L303.484,368.288z"/>
		</g>
	</g>
</g>
</svg>