<svg width="15" height="21" viewBox="0 0 15 21" fill="none" xmlns="http://www.w3.org/2000/svg">
<mask id="path-1-inside-1_1_4959" fill="white">
<path fill-rule="evenodd" clip-rule="evenodd" d="M12.3681 2.8997C9.59888 0.130439 5.10902 0.130438 2.33976 2.8997C-0.050952 5.29041 -0.421336 9.03644 1.4549 11.849L7.35395 20.6921L13.253 11.849C15.1292 9.03644 14.7589 5.29041 12.3681 2.8997ZM7.22491 8.8184C7.65259 8.8184 7.99928 8.4717 7.99928 8.04403C7.99928 7.61635 7.65259 7.26965 7.22491 7.26965C6.79724 7.26965 6.45054 7.61635 6.45054 8.04403C6.45054 8.4717 6.79724 8.8184 7.22491 8.8184Z"/>
</mask>
<path d="M2.33976 2.8997L0.925547 1.48549L2.33976 2.8997ZM12.3681 2.8997L13.7824 1.48549V1.48549L12.3681 2.8997ZM1.4549 11.849L3.11868 10.7392L3.11868 10.7392L1.4549 11.849ZM7.35395 20.6921L5.69017 21.802L7.35395 24.2961L9.01773 21.802L7.35395 20.6921ZM13.253 11.849L11.5892 10.7392L11.5892 10.7392L13.253 11.849ZM3.75397 4.31391C5.74219 2.3257 8.96572 2.3257 10.9539 4.31391L13.7824 1.48549C10.232 -2.06482 4.47586 -2.06482 0.925547 1.48549L3.75397 4.31391ZM3.11868 10.7392C1.77162 8.71984 2.03754 6.03034 3.75397 4.31391L0.925547 1.48549C-2.13945 4.55048 -2.6143 9.35305 -0.208881 12.9589L3.11868 10.7392ZM9.01773 19.5822L3.11868 10.7392L-0.208881 12.9589L5.69017 21.802L9.01773 19.5822ZM11.5892 10.7392L5.69017 19.5822L9.01773 21.802L14.9168 12.9589L11.5892 10.7392ZM10.9539 4.31391C12.6704 6.03034 12.9363 8.71983 11.5892 10.7392L14.9168 12.9589C17.3222 9.35304 16.8474 4.55048 13.7824 1.48549L10.9539 4.31391ZM5.99928 8.04403C5.99928 7.36713 6.54802 6.8184 7.22491 6.8184V10.8184C8.75716 10.8184 9.99928 9.57627 9.99928 8.04403H5.99928ZM7.22491 9.26966C6.54802 9.26966 5.99928 8.72092 5.99928 8.04403H9.99928C9.99928 6.51178 8.75716 5.26965 7.22491 5.26965V9.26966ZM8.45054 8.04403C8.45054 8.72092 7.90181 9.26966 7.22491 9.26966V5.26965C5.69267 5.26965 4.45054 6.51178 4.45054 8.04403H8.45054ZM7.22491 6.8184C7.90181 6.8184 8.45054 7.36713 8.45054 8.04403H4.45054C4.45054 9.57627 5.69267 10.8184 7.22491 10.8184V6.8184Z" fill="#0090FF" mask="url(#path-1-inside-1_1_4959)"/>
</svg>
