<?xml version="1.0" ?><svg viewBox="0 0 64 64" xmlns="http://www.w3.org/2000/svg"><title/><g data-name="Layer 3" id="Layer_3"><path d="M26,35a1,1,0,0,0-1,1v3a1,1,0,0,0,2,0V36A1,1,0,0,0,26,35Z"/><path d="M38,35a1,1,0,0,0-1,1v3a1,1,0,0,0,2,0V36A1,1,0,0,0,38,35Z"/><path d="M50.33,26.14a2.79,2.79,0,0,0,2.85-3,4,4,0,0,0-.92-1.91,7.89,7.89,0,0,0-5.4-2.88c1.14-.32,2.52-.9,2.46-2.18A2,2,0,0,0,48,14.45a10,10,0,0,0-6.8-.33,4.67,4.67,0,0,0,1.24-4.06,1.57,1.57,0,0,0-.55-1,1.7,1.7,0,0,0-1-.24,11.28,11.28,0,0,0-7.41,2.5,6.84,6.84,0,0,0,.35-2.93,2.36,2.36,0,0,0-1.88-2A3.14,3.14,0,0,0,30,7a14.73,14.73,0,0,0-4.7,5.07,5.08,5.08,0,0,0-.51-2.48,1.19,1.19,0,0,0-.63-.67A1.27,1.27,0,0,0,23,9.34a8.6,8.6,0,0,0-2.78,6.2A2.53,2.53,0,0,0,19,13.91a1.7,1.7,0,0,0-2,.37,2.54,2.54,0,0,0-.48,1.16,20.07,20.07,0,0,0-.41,6.28c-.67-.69-1.59-1.46-2.53-.93a1.81,1.81,0,0,0-.8,1.9,15.08,15.08,0,0,0,2,5.61,1,1,0,0,0-1.46.31,2.44,2.44,0,0,0,.17,2,18.44,18.44,0,0,0,1.11,2.12,1.77,1.77,0,0,0-.07.46V39a4.53,4.53,0,0,0,3.87,4.45A10.53,10.53,0,0,0,23.66,49,30.51,30.51,0,0,0,27,50.27a13.66,13.66,0,0,0,1.52.41v2a1.14,1.14,0,0,1-1.06,1.13l-7,.47a4.27,4.27,0,0,0-4,4.24v4h31v-4a4.27,4.27,0,0,0-4-4.24l-7-.47a1.14,1.14,0,0,1-1.06-1.13v-2A13.66,13.66,0,0,0,37,50.27,30.51,30.51,0,0,0,40.34,49a10.53,10.53,0,0,0,5.29-5.52A4.53,4.53,0,0,0,49.5,39v-5.8s0,0,0-.08a10.87,10.87,0,0,0,4.42-1.77,1.21,1.21,0,0,0,.51-.54,1.11,1.11,0,0,0,0-.65C54,28.22,52.07,27.07,50.33,26.14ZM36.49,54.8l1.43.1c-.3.82-1.53,3.25-5.92,3.32s-5.64-2.47-5.92-3.32l1.43-.1a2.14,2.14,0,0,0,2-2.13V50.88a15.73,15.73,0,0,0,5,0v1.79A2.14,2.14,0,0,0,36.49,54.8Zm8.75-12.33-.32,0-.11.29a9.57,9.57,0,0,1-4.89,5.26c-.53.24-1.06.47-1.6.68a5.34,5.34,0,0,0-2-3.73c.18.88.57,3.23-1.14,3.88S32,47.12,32,47.12s-1.45,2.4-3.16,1.76-1.31-3-1.13-3.88a5.31,5.31,0,0,0-2,3.75c-.56-.22-1.11-.45-1.65-.7a9.57,9.57,0,0,1-4.89-5.26l-.11-.29-.32,0A3.51,3.51,0,0,1,15.5,39V34c.46.53.91.86,1.28.73L18.17,38h1v-.36L19,34.74a3.41,3.41,0,0,0,.72.5.62.62,0,0,0,1.05-.56,10.82,10.82,0,0,0-.52-4.07c.3.58,1.06,1.24,1.47.73a.93.93,0,0,0,.14-.64V28.87l.53.06a41,41,0,0,0,3.15,2.72c.46.35,1.12.69,1.56.31a1.14,1.14,0,0,0,.3-.61,3.5,3.5,0,0,0-.06-1.7,14.41,14.41,0,0,0,6.68,4.51.57.57,0,0,0,.72-.57,6,6,0,0,0-.91-3.06,10.82,10.82,0,0,1,3,2.61,4.44,4.44,0,0,0,3.49,1.66,6.29,6.29,0,0,0-.31-3.19c1.42,1.38,3,2.81,4.92,3.15l-.11,2.92V38h1l1.23-2.91,1.44-.44V39A3.51,3.51,0,0,1,45.24,42.47Zm3.26-8.79c-.3-.23-.64-.4-.62-.43l.62,0Z"/><path d="M30,43.56l1.61-1.12A2.63,2.63,0,0,0,30,43.56Z"/><path d="M29.17,43.56l1.61-1.12A2.66,2.66,0,0,0,29.17,43.56Z"/><path d="M28.36,43.56,30,42.44A2.67,2.67,0,0,0,28.36,43.56Z"/><path d="M27.56,43.56l1.61-1.12A2.63,2.63,0,0,0,27.56,43.56Z"/><path d="M32.46,42.44l1.62,1.12A2.67,2.67,0,0,0,32.46,42.44Z"/><path d="M33.27,42.44l1.61,1.12A2.63,2.63,0,0,0,33.27,42.44Z"/><path d="M34.08,42.44l1.61,1.12A2.66,2.66,0,0,0,34.08,42.44Z"/><path d="M34.88,42.44l1.62,1.12A2.67,2.67,0,0,0,34.88,42.44Z"/></g></svg>