<!DOCTYPE svg PUBLIC "-//W3C//DTD SVG 1.1//EN" "http://www.w3.org/Graphics/SVG/1.1/DTD/svg11.dtd">
<!-- Uploaded to: SVG Repo, www.svgrepo.com, Transformed by: SVG Repo Mixer Tools -->
<svg fill="#ffffff" version="1.1" id="Capa_1" xmlns="http://www.w3.org/2000/svg" xmlns:xlink="http://www.w3.org/1999/xlink" width="800px" height="800px" viewBox="0 0 430.004 430.004" xml:space="preserve" stroke="#ffffff">
<g id="SVGRepo_bgCarrier" stroke-width="0"/>
<g id="SVGRepo_tracerCarrier" stroke-linecap="round" stroke-linejoin="round"/>
<g id="SVGRepo_iconCarrier"> <g> <g> <g> <path d="M427.465,239.757V99.239c0-4.275-2.677-8.094-6.695-9.556c-4.02-1.461-8.521-0.252-11.267,3.025 c-0.874,1.041-21.354,26.096-21.354,79.585c0,46.146,20.271,72.622,21.139,73.725c0.21,0.271,0.436,0.521,0.67,0.765 c-1.157,15.938-2.15,33.925-2.15,48.767c0,16.94,0.56,27.84,1.754,34.3c0.508,2.742,2.054,11.086,9.346,11.086 s8.836-8.344,9.344-11.086c1.198-6.46,1.754-17.356,1.754-34.3C430,278.814,427.465,240.109,427.465,239.757z"/> <path d="M42.451,88.135C21.39,88.135,0,129.67,0,159.525c0,21.181,12.013,36.704,31.496,40.978 c-1.974,24.428-4.004,55.524-4.004,80.188c0,22.836,0.75,37.525,2.362,46.233c0.684,3.696,2.768,14.943,12.599,14.943 c9.829,0,11.912-11.247,12.596-14.943c1.61-8.708,2.36-23.397,2.36-46.233c0-24.662-2.028-55.761-4.004-80.188 c19.483-4.274,31.496-19.797,31.496-40.978C84.901,129.67,63.51,88.135,42.451,88.135z"/> <path d="M228.184,79.791c-74.675,0-135.209,60.536-135.209,135.211c0,74.676,60.536,135.211,135.209,135.211 c74.677,0,135.211-60.535,135.211-135.211C363.395,140.327,302.858,79.791,228.184,79.791z M228.184,288.84 c-40.781,0-73.836-33.059-73.836-73.838c0-40.779,33.057-73.838,73.836-73.838c40.779,0,73.838,33.059,73.838,73.838 C302.021,255.781,268.963,288.84,228.184,288.84z"/> </g> </g> </g> </g>
</svg>