<svg width="13" height="13" viewBox="0 0 13 13" fill="none" xmlns="http://www.w3.org/2000/svg">
<path d="M5.54894 1.42705C5.8483 0.505739 7.1517 0.50574 7.45106 1.42705L8.18386 3.68237C8.31773 4.0944 8.70168 4.37336 9.13491 4.37336L11.5063 4.37336C12.475 4.37336 12.8778 5.61297 12.0941 6.18237L10.1756 7.57624C9.8251 7.83088 9.67845 8.28225 9.81232 8.69427L10.5451 10.9496C10.8445 11.8709 9.78999 12.637 9.00628 12.0676L7.08778 10.6738C6.7373 10.4191 6.2627 10.4191 5.91221 10.6738L3.99372 12.0676C3.21001 12.637 2.15553 11.8709 2.45488 10.9496L3.18768 8.69427C3.32155 8.28225 3.1749 7.83088 2.82441 7.57624L0.905917 6.18237C0.122203 5.61297 0.524979 4.37336 1.4937 4.37336L3.86509 4.37336C4.29832 4.37336 4.68227 4.0944 4.81614 3.68237L5.54894 1.42705Z" fill="#EBA731"/>
</svg>
